<svg xmlns="http://www.w3.org/2000/svg" width="19" height="19" viewBox="0 0 19 19"><g><g opacity=".6"><path fill="#737680" d="M14.571 3.289a1.14 1.14 0 1 0 0 2.28 1.14 1.14 0 0 0 0-2.28zm-5.066 9.388a3.172 3.172 0 1 1 0-6.344 3.172 3.172 0 0 1 0 6.344zM9.5 4.622a4.878 4.878 0 1 0 0 9.756 4.878 4.878 0 0 0 0-9.756zm0-2.91c2.537 0 2.837.01 3.839.055.926.042 1.43.197 1.764.327.443.173.76.378 1.092.71.333.333.538.65.71 1.093.13.335.286.838.328 1.764.046 1.002.055 1.302.055 3.839s-.01 2.837-.055 3.839c-.042.926-.197 1.43-.327 1.764-.173.443-.378.76-.71 1.092a2.943 2.943 0 0 1-1.093.71c-.335.13-.838.286-1.764.328-1.002.046-1.302.055-3.839.055s-2.837-.01-3.839-.055c-.926-.042-1.43-.197-1.764-.327a2.943 2.943 0 0 1-1.092-.71 2.943 2.943 0 0 1-.71-1.093c-.13-.335-.286-.838-.328-1.764-.046-1.002-.055-1.302-.055-3.839s.01-2.837.055-3.839c.042-.926.197-1.43.327-1.764.173-.443.378-.76.71-1.092a2.943 2.943 0 0 1 1.093-.71c.335-.13.838-.286 1.764-.328 1.002-.046 1.302-.055 3.839-.055zM9.5 0C6.92 0 6.596.01 5.583.057 4.572.103 3.881.264 3.277.5a4.656 4.656 0 0 0-1.683 1.095A4.656 4.656 0 0 0 .5 3.277C.264 3.881.103 4.572.057 5.583.011 6.596 0 6.92 0 9.5s.01 2.904.057 3.917c.046 1.011.207 1.702.442 2.306a4.656 4.656 0 0 0 1.095 1.683A4.657 4.657 0 0 0 3.277 18.5c.604.235 1.295.396 2.306.442C6.596 18.989 6.92 19 9.5 19s2.904-.01 3.917-.057c1.011-.046 1.702-.207 2.306-.442a4.657 4.657 0 0 0 1.683-1.095 4.657 4.657 0 0 0 1.095-1.683c.235-.604.396-1.295.442-2.306.046-1.013.057-1.337.057-3.917s-.01-2.904-.057-3.917c-.046-1.011-.207-1.702-.442-2.306a4.657 4.657 0 0 0-1.095-1.683A4.656 4.656 0 0 0 15.723.5c-.604-.235-1.295-.396-2.306-.442C12.404.011 12.08 0 9.5 0z"/></g></g></svg>