<svg xmlns="http://www.w3.org/2000/svg" width="21" height="22" viewBox="0 0 21 22"><g><g opacity=".3" transform="rotate(1 10.5 11.5)"><path d="M11.948 3.967c1.526.032 2.95 1.085 3.595 2.58.735 1.704.461 3.851-.745 5.26 0 0-.176.187-.377.157-.35-.052-.452-.461-.128-.866 1.276-1.64 1.02-4.444-.659-5.678-1.201-.884-2.973-.682-4.014.502 0 0-.31.234-.542.055-.372-.287.126-.91.618-1.273a3.767 3.767 0 0 1 2.252-.737zm.65-2.017c2.421.024 4.707 1.644 5.721 3.922 1.117 2.507.736 5.639-1.053 7.748-.161.19-.361.387-.606.314-.313-.093-.416-.451-.092-.821 1.797-2.08 2.025-5.393.515-7.73-1.753-2.712-5.946-3.496-8.434-.796 0 0-.155.136-.309.138-.368.004-.575-.468-.17-.883 1.136-1.165 2.707-1.876 4.35-1.892h.077zm-.335-2c3.307.03 6.423 2.06 7.81 4.919 1.556 3.21 1.012 7.21-1.594 9.892-.45.463-1.187.001-.62-.586 2.565-2.69 2.913-7.01.763-10.065C16.964 1.755 13.802.353 10.81.896a7.918 7.918 0 0 0-4.14 2.18s-.19.146-.372.127a.401.401 0 0 1-.257-.123l-.092-.349a.641.641 0 0 1 .194-.333A8.867 8.867 0 0 1 12.105-.05h.158zM3.967 2.012c.568.01 1.048.44 1.2.97.317 1.15.604 2.308.899 3.464.181.745-.586 1.38-.586 1.38-1.175.873-1.48 2.535-.832 3.758 1.32 2.492 3.585 4.38 6.09 5.702 1.12.592 2.48.433 3.234-.452.236-.277.299-.78.534-.717 1.176.32 2.355.632 3.53.958.383.111.691.412.838.772.21.517.118 1.176.1 1.796a1.395 1.395 0 0 1-1.248 1.314 13.893 13.893 0 0 1-6.163-.86C5.482 17.793 1.303 11.5 1.026 5.121c-.022-.5-.021-1.002.003-1.503.04-.801.516-1.602 1.288-1.607.55 0 1.1-.003 1.65 0zm-1.801-1C.892 1.038.104 2.152.038 3.308a17.839 17.839 0 0 0 1.4 7.971c2.699 6.332 9.113 10.97 15.787 10.723.302-.011.485-.014.894-.062a2.155 2.155 0 0 0 1.36-.748c.588-.703.532-1.733.527-2.693-.014-.964-.66-1.853-1.576-2.118-1.207-.334-2.414-.67-3.626-.984a1.01 1.01 0 0 0-1.09.485c-.425.802-1.413 1.347-2.248.933-1.569-.795-3.02-1.81-4.232-3.062-1.409-1.458-2.703-3.286-1.862-4.713.24-.406.744-.77.744-.77.632-.49.907-1.343.72-2.108A384.226 384.226 0 0 0 6.04 3.08a.394.394 0 0 1-.092-.349l-.026-.098c-.253-.917-1.1-1.605-2.04-1.62-.572-.003-1.144-.003-1.716 0z"/></g></g></svg>