<svg xmlns="http://www.w3.org/2000/svg" width="88" height="88" viewBox="0 0 88 88"><g><g><path fill="#69c" d="M80.367 0c2.61 0 4.743.806 5.793 1.87 2.387 2.384 3.41 10.148-3.019 16.593l-18.137 18.17c.591 10.181 2.186 36.242 2.203 36.816.033.828.099 2.588-1.595 4.647-1.694 2.06-5.676 6.294-5.676 6.294-.923.924-2.048 1.438-3.137 1.438-.118 0-.24-.006-.357-.022-.724-.072-2.043-.462-2.742-2.241-.42-1.086-6.7-18.103-9.574-26.011L32.88 68.384c-.066 3.1.01 10.908-.033 12.75-.017.591.385 1.991-2.5 5.37-1.02.99-2.06 1.496-3.077 1.496h-.082c-1.048-.03-1.92-.544-2.45-1.446-.363-.608-7.364-11.752-8.884-14.235-6.344-3.84-14.079-8.801-14.681-9.29C.169 62.222-.02 61.221.002 60.525c.024-.676.264-1.696 1.284-2.722l.244-.222c3.41-2.857 4.7-2.55 5.327-2.569.15-.005.368-.005.64-.005 2.049 0 7.169.107 10.471.107.668 0 1.265-.008 1.743-.02L30.54 43.912c-7.928-2.926-25.091-9.357-26.172-9.783-1.773-.699-2.17-2.016-2.244-2.742-.123-1.196.396-2.472 1.422-3.505 0 0 4.248-3.998 6.286-5.686 1.735-1.436 3.26-1.606 4.144-1.606.159 0 .302.003.417.008.65.02 26.804 1.754 37.02 2.4l18.13-18.166C73.117 1.254 77.112 0 80.368 0zm0 5.521c-1.386 0-4.13.415-6.921 3.212L55.314 26.899l-1.76 1.76-2.483-.154c-4.97-.316-13.71-.883-21.453-1.397-7.292-.473-14.837-.968-15.445-.998l-.192-.006c-.146 0-.357.119-.632.344-.985.814-2.67 2.345-4.067 3.632 5.447 2.051 17.09 6.407 23.166 8.645l8.087 2.98-6.094 6.107L23.613 59l-1.562 1.565-2.213.055c-.512.008-1.15.014-1.864.014-1.87 0-4.315-.03-6.468-.061a273.246 273.246 0 0 0-4.003-.044h-.105a494.93 494.93 0 0 0 11.31 7.066l1.15.696.7 1.147c.954 1.561 4.095 6.574 6.36 10.192l.434.696c.01-1.017.003-2.598 0-4.32-.008-2.799-.016-5.972.023-7.74l.05-2.216 1.567-1.564 11.243-10.834 6.115-6.128 2.959 8.141a5111.159 5111.159 0 0 0 8.447 22.978c1.279-1.391 2.796-3.074 3.608-4.058.363-.44.36-.534.343-.921-.024-.572-.431-7.25-.855-14.326-.481-7.946-1.042-17.215-1.342-22.39l-.143-2.471 1.75-1.752 18.136-18.172c3.9-3.904 3.371-7.687 2.972-8.743-.327-.121-.96-.289-1.858-.289zM27.347 80.7c-.017.037.233.078.317.126l-.312-.5-.005.374zm.317.126l.024.039c.008-.014-.002-.027-.024-.039zM7.204 60.403c-.038-.058-.08-.108-.125-.08l.125.08zm.117.126h.077l-.194-.126c.043.067.082.144.117.126z"/></g></g></svg>