<svg xmlns="http://www.w3.org/2000/svg" width="88" height="88" viewBox="0 0 88 88"><g><g><path fill="#6dcf94" d="M35.5 6C18.656 6 5 18.312 5 33.508c0 8.81 4.68 16.57 11.835 21.604V63l6.908-4.123a33.218 33.218 0 0 0 11.757 2.13c16.844 0 30.5-12.314 30.5-27.5C66 18.313 52.344 6 35.5 6zm.5 60.2c-3.781 0-7.357-.684-10.784-1.678L11.651 74V57.346C4.531 51.298 0 42.716 0 33.099 0 14.819 16.116 0 36 0s36 14.82 36 33.099c0 18.279-16.12 33.1-36 33.1zm37.941 3.082V88L57.173 76.15c-1.882.278-3.771.537-5.732.537-7.572 0-14.603-2.144-20.441-5.818.722.03 1.427.096 2.155.096 3.533 0 6.951-.407 10.24-1.105 2.58.64 5.243 1.092 8.043 1.092 2.207 0 4.354-.23 6.432-.631l10.444 6.327v-8.494l-3.681-.008c10.46-4.555 17.742-14.26 17.742-25.594 0-6.474-2.45-12.37-6.426-17.148C75.065 21.34 73.457 17.5 71.234 14 81.303 20.074 88 30.588 88 42.598c.008 10.87-5.554 20.441-14.059 26.684z"/></g></g></svg>