<svg xmlns="http://www.w3.org/2000/svg" width="88" height="88" viewBox="0 0 88 88"><g><g><path fill="#f08c7d" d="M85.25 5.5c-.017.047-20.136.047-19.25 0C78.724 13.02 88 27.4 88 44c0 24.311-19.701 44-44 44C19.698 88 0 68.311 0 44 0 21.597 16.8 3.13 38.5 0v5.5C19.866 8.782 5.5 24.653 5.5 44c0 21.274 17.237 38.503 38.5 38.5 21.26.003 38.5-17.226 38.5-38.5 0-15.3-9.025-28.42-22-35.75.005 1.137.005 22.013 0 22A2.725 2.725 0 0 1 57.75 33 2.735 2.735 0 0 1 55 30.25v-22-5.5c.09-1.227.193-1.216 0 0 .49-1.596.795-1.914 0-2.75 1.251.511 1.337.448 2.75 0-1.018.236-.696.146 0 0-.226.088-.13 0 0 0 .074 0 .138.038 0 0 .212.044 27.48.044 27.5 0 1.504.044 2.736 1.273 2.75 2.75-.014 1.568-1.243 2.797-2.75 2.75z"/></g></g></svg>