<svg xmlns="http://www.w3.org/2000/svg" width="11" height="10" viewBox="0 0 11 10"><g><g><path fill="#fff" d="M10.51 1.182v7.195c0 .34-.125.633-.378.876a1.261 1.261 0 0 1-.907.366H1.767c-.353 0-.656-.122-.907-.366a1.173 1.173 0 0 1-.38-.876V1.182c0-.34.127-.633.38-.876.251-.244.554-.366.907-.366h7.458c.352 0 .654.122.907.366.253.243.378.536.378.876zM3.49 4.76c0 .521.198.965.592 1.333.393.368.867.551 1.42.551.558 0 1.033-.183 1.427-.551.394-.368.591-.812.591-1.333 0-.52-.197-.965-.59-1.332a2.018 2.018 0 0 0-1.428-.552c-.553 0-1.027.184-1.42.552-.394.367-.592.812-.592 1.332zM9.374 8.12V4.036h-.881c.087.264.13.54.13.825a2.71 2.71 0 0 1-.418 1.465A2.998 2.998 0 0 1 7.07 7.388a3.23 3.23 0 0 1-1.568.391c-.857 0-1.59-.285-2.2-.854-.61-.57-.915-1.257-.915-2.064 0-.285.044-.56.131-.825h-.92v4.083c0 .11.038.2.113.274.076.074.172.11.285.11h6.98a.395.395 0 0 0 .28-.11.357.357 0 0 0 .118-.274zm0-6.667a.413.413 0 0 0-.13-.305.438.438 0 0 0-.32-.13H7.787a.44.44 0 0 0-.32.13.417.417 0 0 0-.13.305v1.04c0 .122.044.225.13.309a.448.448 0 0 0 .32.126h1.137a.446.446 0 0 0 .32-.126.41.41 0 0 0 .13-.309z"/></g></g></svg>