<svg xmlns="http://www.w3.org/2000/svg" width="11" height="13" viewBox="0 0 11 13"><g><g><path fill="#fff" d="M1.993 7.518c.684-1.11-.22-1.354-.362-2.16-.578-3.29 4.13-5.538 6.595-3.238 1.706 1.592.582 6.49-2.168 5.98-2.634-.486 1.291-4.384-.812-5.149-1.709-.622-2.617 1.902-1.807 3.156C2.964 8.264 1.942 10.296 2.356 13c1.343-.896 1.797-2.612 2.168-4.402.675.377 1.037.77 1.897.83 3.175.227 4.95-2.914 4.514-5.813-.385-2.57-3.17-3.878-6.142-3.57C2.443.285.103 2.031.005 4.528c-.059 1.524.412 2.668 1.988 2.99z"/></g></g></svg>