<svg xmlns="http://www.w3.org/2000/svg" width="13" height="9" viewBox="0 0 13 9"><g><g><path fill="#fff" d="M12.642.166c-.516.26-1.086.45-1.695.552C10.46.275 9.768 0 9 0 7.528 0 6.333 1.018 6.333 2.272c0 .178.025.352.07.518-2.216-.095-4.181-1-5.497-2.375-.23.335-.36.726-.36 1.142 0 .79.47 1.485 1.185 1.892a3.022 3.022 0 0 1-1.207-.285v.028c0 1.101.92 2.02 2.138 2.228a3.104 3.104 0 0 1-1.205.039c.34.903 1.325 1.56 2.492 1.58-.914.608-2.063.971-3.312.971C.42 8.01.208 8 0 7.979A8.527 8.527 0 0 0 4.088 9c4.906 0 7.589-3.463 7.589-6.466l-.01-.295c.523-.319.977-.72 1.333-1.174-.478.18-.991.303-1.53.358.55-.281.972-.727 1.172-1.257z"/></g></g></svg>